<?xml version="1.0" encoding="utf-8"?>
<!-- Generator: Adobe Illustrator 24.0.1, SVG Export Plug-In . SVG Version: 6.00 Build 0)  -->
<svg version="1.1" id="图层_1" xmlns="http://www.w3.org/2000/svg" xmlns:xlink="http://www.w3.org/1999/xlink" x="0px" y="0px"
	 viewBox="0 0 2875.57 962.43" style="enable-background:new 0 0 2875.57 962.43;" xml:space="preserve">
<style type="text/css">
	.st0{stroke:#333333;stroke-miterlimit:10;}
	.st1{stroke:#000000;stroke-miterlimit:10;}
	.st2{fill:#0072FF;stroke:#000000;stroke-miterlimit:10;}
	.st3{stroke:#000000;stroke-width:4;stroke-miterlimit:10;}
	.st4{fill:none;stroke:#000000;stroke-miterlimit:10;}
</style>
<g>
	<polygon class="st1" points="566.91,165.54 555.44,240.62 491.83,240.62 491.83,655.28 721.3,655.28 760.72,400.88 673.59,400.88 
		685.06,325.8 844.47,325.8 782.76,729.81 416.69,729.81 416.69,165.54 	"/>
	<polygon class="st1" points="830.91,729.99 842.39,654.85 906.09,654.85 906.09,239.93 676.32,239.93 636.85,494.49 724.09,494.49 
		712.61,569.63 552.99,569.63 614.78,165.35 981.33,165.35 981.33,729.99 	"/>
</g>
<g>
	<path class="st3" d="M1219.07,438.73l-7.16,58.35h-23.64l6.61-53.86c-27.74,4.49-54.01,8.98-75.17,12.87l-2.42-26.03
		c5.39-0.6,11.41-1.5,17.73-2.39l20.61-167.86h-14.48l3.09-25.13h111.42l-3.09,25.13h-11.53l-18.96,154.4l22.02-3.59l-1.17,23.94
		L1219.07,438.73z M1180.15,259.79l-4.56,37.1h37.24l4.56-37.1H1180.15z M1168.14,357.64h37.24l4.63-37.7h-37.24L1168.14,357.64z
		 M1160.02,423.77c12.04-1.8,25.01-3.89,37.97-5.98l4.56-37.1h-37.24L1160.02,423.77z M1323.43,383.07
		c7.38,40.99,28.31,75.1,62.46,90.66c-6.83,5.09-16.13,15.86-20.82,22.74c-27.72-14.96-46.39-40.99-57.39-74.21
		c-13.65,26.93-36.24,54.46-73.65,77.5c-3.4-5.98-11.76-14.96-17.97-19.75c49.63-28.73,69.78-65.23,78.7-96.95h-55.27l3.09-25.13
		h57.63c0.81-4.19,1.32-8.38,1.76-11.97l4.52-36.8h-51.13l3.12-25.43h35.76c-4.04-12.87-13.25-31.72-23.08-45.48l23.82-11.07
		c10.13,13.76,20.04,31.72,23.82,44.28l-23.97,12.27h35.76c12.29-15.86,26.98-39.2,35.57-56.25l27.12,7.78
		c-11.22,16.76-23.73,34.41-34.62,48.47h36.94l-3.12,25.43h-58.22l-4.59,37.4c-0.44,3.59-0.92,7.48-1.69,11.37h68.27l-3.09,25.13
		H1323.43z"/>
	<path class="st3" d="M1609.55,238.55c-3.51,4.49-7.01,8.98-11.11,13.46c31.65,35.91,69.05,58.65,110.62,76.3
		c-8.16,6.28-17.39,16.46-22.33,25.43c-14.71-7.78-28.83-15.56-42.5-24.54l-2.42,19.75h-147.18l1.84-14.96
		c-14.92,8.38-30.1,16.46-45.35,22.74c-3.81-7.48-10.21-17.95-17.05-24.84c57.65-21.84,116.99-59.84,152.8-105.92L1609.55,238.55z
		 M1473.96,380.08h184.72l-14.7,119.69h-28.96l1.69-13.76h-127.97l-1.84,14.96h-27.78L1473.96,380.08z M1498.69,404.92l-6.8,55.36
		h127.97l6.8-55.36H1498.69z M1635.81,323.23c-19.85-14.06-38.22-30.52-56.63-51.47c-19.49,19.15-41.72,36.5-64.84,51.47H1635.81z"
		/>
	<path class="st3" d="M1920.5,461.62h70.04l-3.31,26.93h-264.51l3.31-26.93h165.8c4.05-13.76,7.63-28.43,11.87-43.69h-132.4
		c15.75-39.2,36.87-102.93,50.99-152.9h-62.95l3.27-26.63h246.78l-3.27,26.63h-153.68c-4.39,14.06-9.22,29.32-13.71,44.28h94.57
		l25.8,0.54 M1910.74,391.9c5.16-20.35,10.24-40.1,14.04-56.55h-94.28c-6.6,20.05-12.83,39.5-18.77,56.55H1910.74z"/>
	<path class="st3" d="M2115.89,469.7c-4.59-8.38-11.39-17.95-19.97-27.53c-16.2,23.64-35.29,41.89-57.93,55.36
		c-2.7-6.88-8.88-16.76-14.13-22.14c21.16-11.07,39.58-28.73,55.23-52.66c-12.31-12.87-25.8-25.73-38.37-36.5
		c8.7-20.35,18.25-47.58,27.4-76.3h-23.05l3.16-25.73h27.78c5.38-19.75,10.5-39.8,14.41-57.15l24.68,1.2
		c-3.9,17.35-9.25,36.8-14.55,55.95h31.33l4.51-0.6l15.92,2.69c-9.72,52.66-22.91,95.15-39.74,128.66
		c10.68,11.67,20.22,23.04,25.81,32.91L2115.89,469.7z M2092.65,309.91c-7.63,23.64-15.11,46.08-22.2,65.23
		c7.47,6.58,15.75,13.76,23.4,21.24c11.58-24.54,21.32-53.26,28.65-86.47H2092.65z M2232.93,421.52
		c10.07,26.33,32.25,45.48,64.65,53.56c-6.9,5.69-15.91,16.46-20.67,23.94c-32.59-11.37-53.96-32.32-65.73-61.64
		c-14.98,28.13-39.39,48.77-82.75,62.54c-2.04-7.48-8.14-17.95-13.35-23.64c41.33-11.67,62.41-29.32,74.99-54.76h-57.93l3.01-24.54
		h64.13c2.28-8.98,4.31-18.25,6.15-28.43h-57.93l3.01-24.54h150.43l-3.01,24.54h-65.32c-1.84,10.17-3.87,19.45-6.15,28.43h78.32
		l-3.01,24.54H2232.93z M2296.07,321.28h-135.95l10.21-83.18h135.95L2296.07,321.28z M2276.74,262.04h-84.23l-4.34,35.31h84.23
		L2276.74,262.04z"/>
	<g>
		<path d="M1132.95,535.96h27.92l-13.55,110.38h58.33l-2.83,23.02h-86.25L1132.95,535.96z"/>
		<path d="M1254.68,535.96h27.92l-16.38,133.4h-27.92L1254.68,535.96z"/>
		<path d="M1361.71,535.96h24.68l-3.18,25.88h-8.51l-46.57,107.51h-29.3L1361.71,535.96z M1337.26,616.11h62.21l4.28,20.89h-75.9
			L1337.26,616.11z M1375.26,561.85l3.18-25.88h16.18l30.12,133.4h-29.4L1375.26,561.85z"/>
		<path d="M1473.73,535.96h24.41l59.66,104.37l-21.22-17.66h11.74l10.65-86.71h27.83l-16.38,133.4h-24.22l-59.78-104.92l21.22,17.66
			h-11.74l-10.72,87.27h-27.83L1473.73,535.96z"/>
		<path d="M1627.91,535.96h27.92l-6.65,54.17h60.09l6.65-54.17h27.92l-16.38,133.4h-27.92l6.89-56.11h-60.09l-6.89,56.11h-27.92
			L1627.91,535.96z"/>
		<path d="M1784.95,535.96h88.38l-2.83,23.02h-60.46l-3.93,31.99h57.04l-2.69,21.91h-57.04l-4.11,33.46h60.46l-2.83,23.02h-88.38
			L1784.95,535.96z"/>
		<path d="M1950.41,535.96h24.68l-3.18,25.88h-8.51l-46.57,107.51h-29.3L1950.41,535.96z M1925.96,616.11h62.21l4.28,20.89h-75.9
			L1925.96,616.11z M1963.96,561.85l3.18-25.88h16.18l30.12,133.4h-29.4L1963.96,561.85z"/>
		<path d="M2062.43,535.96h55.1c9.98,0,18.33,1.71,25.02,5.13c6.7,3.42,11.55,8.31,14.56,14.65c3.01,6.35,3.97,13.99,2.87,22.93
			l-0.02,0.19c-1.08,8.81-4.21,16.63-9.39,23.43c-5.18,6.81-11.65,11.66-19.4,14.56l21.66,52.51h-31.71l-18.85-48.26
			c-0.25,0-0.48,0-0.69,0c-0.22,0-0.45,0-0.69,0h-20.98l-5.92,48.26h-27.92L2062.43,535.96z M2106.63,599.84
			c6.9,0,12.55-1.85,16.95-5.55c4.4-3.7,7-8.81,7.8-15.35l0.02-0.19c0.79-6.41-0.64-11.49-4.28-15.25
			c-3.64-3.76-8.88-5.64-15.72-5.64h-23.76l-5.15,41.97H2106.63z"/>
		<path d="M2231.63,558.98h-38.64l2.83-23.02h105.2l-2.83,23.02h-38.64l-13.55,110.38h-27.92L2231.63,558.98z"/>
	</g>
</g>
</svg>
